<svg width="46" height="45" viewBox="0 0 46 45" fill="none" xmlns="http://www.w3.org/2000/svg">
<path d="M7.73425 29.3546C8.22104 28.5488 8.76018 27.769 9.18392 26.9319C10.1168 25.089 10.9814 23.2124 11.8931 21.3588C12.5522 20.019 13.2422 18.6941 14.031 17.4243C15.7286 17.8513 17.3279 18.1656 18.8944 18.5968C20.3061 18.9854 21.3613 19.8794 21.8563 21.2728C22.4409 22.9183 22.1977 24.6172 22.1499 26.3088C19.9995 26.3088 17.9583 26.3088 15.8579 26.3088C15.8067 25.3948 15.7532 24.5329 15.7119 23.6705C15.6864 23.138 15.6434 22.6235 14.9485 22.5488C14.2791 22.4769 14.0544 22.9388 13.9029 23.4503C13.3829 25.2056 13.7628 26.3679 15.2846 27.4327C16.8127 28.5018 18.39 29.5015 19.9276 30.5575C21.5848 31.6956 22.5338 33.2753 22.7375 35.2629C22.8412 36.2739 22.8542 37.2937 22.9297 38.3079C23.1327 41.0371 22.3768 43.2753 19.713 44.5549C19.696 44.563 19.6984 44.6106 19.6917 44.6398C16.7849 44.6398 13.8781 44.6398 10.8517 44.5879C9.24398 44.0113 8.40833 42.8935 7.89962 41.4791C7.18142 39.4821 7.37484 37.4282 7.42562 35.3569C9.61158 35.3569 11.7112 35.3569 13.875 35.3569C13.875 35.8141 13.8664 36.227 13.8767 36.6394C13.899 37.5356 13.8164 38.4558 14.003 39.3182C14.11 39.8125 14.6606 40.2127 15.0114 40.6552C15.4075 40.2443 16.0403 39.8897 16.1563 39.4121C16.543 37.8198 16.3081 36.3013 14.9016 35.2028C13.7413 34.2966 12.5107 33.4768 11.3718 32.5461C10.1231 31.5257 8.94381 30.422 7.73425 29.3546Z" fill="#FDFDFD"/>
<path d="M19.7766 44.64C19.6983 44.6108 19.696 44.5632 19.713 44.555C22.3768 43.2755 23.1327 41.0373 22.9296 38.3081C22.8542 37.2939 22.8411 36.2741 22.7375 35.2631C22.5337 33.2754 21.5847 31.6958 19.9276 30.5577C18.39 29.5017 16.8126 28.502 15.2846 27.4329C13.7628 26.3681 13.3828 25.2058 13.9028 23.4505C14.0544 22.939 14.279 22.4771 14.9484 22.549C15.6434 22.6237 15.6864 23.1382 15.7119 23.6706C15.7532 24.5331 15.8066 25.395 15.8579 26.309C17.9582 26.309 19.9995 26.309 22.1498 26.309C22.1976 24.6173 22.4408 22.9185 21.8563 21.273C21.3613 19.8795 20.306 18.9856 18.8943 18.597C17.3279 18.1657 15.7286 17.8515 14.0972 17.4367C14.6846 16.058 15.2938 14.7166 15.9578 13.4023C17.1806 10.9817 18.4262 8.57221 19.6803 6.16724C20.7125 4.18769 21.7706 2.2214 22.9495 0C23.4638 0.881359 23.8956 1.54939 24.2572 2.25282C26.4991 6.61404 28.7226 10.9846 30.9597 15.3482C31.2835 15.9799 31.6477 16.5913 32.0063 17.3448C31.6431 17.5929 31.2743 17.7563 30.8892 17.8164C26.7934 18.4555 24.4344 21.1581 24.4231 25.2606C24.4135 28.7879 24.3936 32.3153 24.4188 35.8423C24.4292 37.303 24.4413 38.777 24.6392 40.2198C24.8955 42.0884 26.1617 43.4054 27.4934 44.64C24.9495 44.64 22.4056 44.64 19.7766 44.64Z" fill="#413F75"/>
<path d="M27.5785 44.64C26.1618 43.4055 24.8956 42.0885 24.6393 40.2199C24.4413 38.777 24.4292 37.3031 24.4188 35.8424C24.3936 32.3153 24.4135 28.7879 24.4232 25.2606C24.4344 21.1581 26.7934 18.4555 30.8892 17.8164C31.2744 17.7563 31.6431 17.5929 32.027 17.4048C32.5772 19.0822 33.1198 20.8322 33.5861 22.6569C32.279 22.2833 31.6507 22.5558 31.6472 23.6152C31.6297 28.9413 31.6388 34.2675 31.646 39.5937C31.6467 40.1331 31.7621 40.6365 32.4508 40.6802C33.0749 40.7199 33.613 40.5906 33.7061 39.8442C33.7649 39.3728 33.8319 38.8986 33.8374 38.425C33.8545 36.973 33.8436 35.5206 33.8436 34.0394C35.9044 34.0394 37.8364 34.0475 39.7681 34.0298C40.0302 34.0274 40.2911 33.8951 40.5526 33.823C40.7752 34.2086 40.9979 34.5942 41.1728 35.0645C41.0466 35.8154 40.867 36.4875 40.9072 37.1465C41.0832 40.0336 40.2117 42.4837 37.9469 44.435C37.8152 44.5128 37.7346 44.5764 37.6539 44.64C34.3238 44.64 30.9937 44.64 27.5785 44.64Z" fill="#FDFDFD"/>
<path d="M7.70206 29.4116C8.94375 30.4221 10.1231 31.5258 11.3718 32.5462C12.5107 33.4769 13.7412 34.2967 14.9015 35.2029C16.308 36.3013 16.5429 37.8198 16.1562 39.4122C16.0402 39.8898 15.4074 40.2443 15.0114 40.6553C14.6605 40.2127 14.1099 39.8126 14.003 39.3183C13.8164 38.4559 13.8989 37.5356 13.8767 36.6395C13.8664 36.227 13.8749 35.8142 13.8749 35.357C11.7111 35.357 9.61153 35.357 7.42557 35.357C7.37479 37.4282 7.18137 39.4822 7.89957 41.4791C8.40827 42.8936 9.24393 44.0114 10.7666 44.588C7.22914 44.6399 3.65709 44.6399 0 44.6399C2.49995 39.5828 5.08493 34.5257 7.70206 29.4116Z" fill="#424076"/>
<path d="M37.9977 44.4209C40.2116 42.4838 41.0831 40.0338 40.907 37.1467C40.8669 36.4876 41.0465 35.8155 41.1926 35.124C42.4831 37.543 43.7 39.9903 44.9333 42.4295C45.2171 42.9908 45.5572 43.5242 45.9356 44.0858C45.9999 44.2776 45.9999 44.4541 45.9999 44.6402C44.7261 44.6402 43.4522 44.6402 42.0395 44.5875C40.6664 44.5699 39.4323 44.605 38.1981 44.6402C38.1981 44.6402 38.1074 44.6402 38.061 44.585C38.009 44.4936 38.0033 44.4573 37.9977 44.4209Z" fill="#424077"/>
<path d="M40.5402 33.7625C40.2912 33.8949 40.0303 34.0272 39.7682 34.0296C37.8365 34.0473 35.9045 34.0392 33.8437 34.0392C33.8437 35.5204 33.8545 36.9728 33.8375 38.4248C33.8319 38.8984 33.7649 39.3726 33.7061 39.844C33.6131 40.5904 33.075 40.7196 32.4509 40.68C31.7622 40.6363 31.6468 40.1329 31.646 39.5935C31.6389 34.2673 31.6298 28.9411 31.6473 23.6149C31.6508 22.5556 32.2791 22.2831 33.583 22.7291C33.7208 23.0335 33.8388 23.3397 33.8413 23.6469C33.858 25.6958 33.85 27.7449 33.85 29.9214C35.1301 29.9214 36.3232 29.9358 37.5158 29.9157C38.1683 29.9047 38.6705 30.0824 38.9783 30.7009C39.4799 31.7086 40.0098 32.7026 40.5402 33.7625Z" fill="#3F3D75"/>
</svg>
